# MagicaVoxel @ Ephtracy

# group
o 

# material
mtllib bush1.mtl
usemtl palette

# normals
vn -1 0 0
vn 1 0 0
vn 0 0 1
vn 0 0 -1
vn 0 -1 0
vn 0 1 0

# texcoords
vt 0.0957031 0.5
vt 0.0996094 0.5

# verts
v -0.15 -0.25 0.15
v -0.15 -0.25 -0.15
v -0.15 -0.05 0.15
v -0.15 -0.05 -0.15
v -0.15 0.05 0.15
v -0.15 0.05 -0.15
v -0.15 0.15 0.15
v -0.15 0.15 -0.15
v -0.15 0.25 0.15
v -0.15 0.25 -0.15
v 0.05 -0.25 0.15
v 0.05 -0.25 0.05
v 0.05 -0.05 0.15
v 0.05 -0.05 0.05
v 0.05 0.05 0.15
v 0.05 0.05 0.05
v 0.05 0.05 -0.15
v 0.05 0.15 0.15
v 0.05 0.15 -0.15
v 0.05 0.25 0.15
v 0.05 0.25 -0.15
v 0.15 -0.25 0.05
v 0.15 -0.25 -0.15
v 0.15 -0.05 0.05
v 0.15 -0.05 -0.15
v 0.15 0.05 0.05
v 0.15 0.05 -0.15
v -0.15 -0.25 0.15
v -0.15 -0.05 0.15
v -0.15 0.05 0.15
v -0.15 0.15 0.15
v -0.15 0.25 0.15
v 0.05 -0.25 0.15
v 0.05 -0.05 0.15
v 0.05 0.05 0.15
v 0.05 0.15 0.15
v 0.05 0.25 0.15
v 0.05 -0.25 0.05
v 0.05 -0.05 0.05
v 0.05 0.05 0.05
v 0.15 -0.25 0.05
v 0.15 -0.05 0.05
v 0.15 0.05 0.05
v -0.15 -0.25 -0.15
v -0.15 -0.05 -0.15
v -0.15 0.05 -0.15
v -0.15 0.15 -0.15
v -0.15 0.25 -0.15
v 0.05 0.05 -0.15
v 0.05 0.15 -0.15
v 0.05 0.25 -0.15
v 0.15 -0.25 -0.15
v 0.15 -0.05 -0.15
v 0.15 0.05 -0.15
v -0.15 -0.25 0.15
v 0.05 -0.25 0.15
v 0.05 -0.25 0.05
v 0.15 -0.25 0.05
v -0.15 -0.25 -0.15
v 0.15 -0.25 -0.15
v 0.05 0.05 0.05
v 0.15 0.05 0.05
v 0.05 0.05 -0.15
v 0.15 0.05 -0.15
v -0.15 0.25 0.15
v 0.05 0.25 0.15
v -0.15 0.25 -0.15
v 0.05 0.25 -0.15

# faces
f 3/1/1 2/1/1 1/1/1
f 4/1/1 2/1/1 3/1/1
f 5/2/1 4/2/1 3/2/1
f 6/2/1 4/2/1 5/2/1
f 7/1/1 6/1/1 5/1/1
f 8/1/1 6/1/1 7/1/1
f 9/2/1 8/2/1 7/2/1
f 10/2/1 8/2/1 9/2/1
f 11/1/2 12/1/2 13/1/2
f 13/1/2 12/1/2 14/1/2
f 13/2/2 14/2/2 15/2/2
f 15/2/2 14/2/2 16/2/2
f 15/1/2 16/1/2 18/1/2
f 16/1/2 17/1/2 18/1/2
f 18/1/2 17/1/2 19/1/2
f 18/2/2 19/2/2 20/2/2
f 20/2/2 19/2/2 21/2/2
f 22/1/2 23/1/2 24/1/2
f 24/1/2 23/1/2 25/1/2
f 24/2/2 25/2/2 26/2/2
f 26/2/2 25/2/2 27/2/2
f 33/1/3 29/1/3 28/1/3
f 34/2/3 30/2/3 29/2/3
f 34/1/3 29/1/3 33/1/3
f 35/1/3 31/1/3 30/1/3
f 35/2/3 30/2/3 34/2/3
f 36/2/3 32/2/3 31/2/3
f 36/1/3 31/1/3 35/1/3
f 37/2/3 32/2/3 36/2/3
f 41/1/3 39/1/3 38/1/3
f 42/2/3 40/2/3 39/2/3
f 42/1/3 39/1/3 41/1/3
f 43/2/3 40/2/3 42/2/3
f 45/2/4 46/2/4 49/2/4
f 46/1/4 47/1/4 49/1/4
f 47/2/4 48/2/4 50/2/4
f 49/1/4 47/1/4 50/1/4
f 50/2/4 48/2/4 51/2/4
f 44/1/4 45/1/4 52/1/4
f 45/2/4 49/2/4 53/2/4
f 52/1/4 45/1/4 53/1/4
f 53/2/4 49/2/4 54/2/4
f 57/1/5 56/1/5 55/1/5
f 59/1/5 57/1/5 55/1/5
f 59/1/5 58/1/5 57/1/5
f 60/1/5 58/1/5 59/1/5
f 61/2/6 62/2/6 63/2/6
f 63/2/6 62/2/6 64/2/6
f 65/2/6 66/2/6 67/2/6
f 67/2/6 66/2/6 68/2/6
