# MagicaVoxel @ Ephtracy

# group
o 

# material
mtllib bush2.mtl
usemtl palette

# normals
vn -1 0 0
vn 1 0 0
vn 0 0 1
vn 0 0 -1
vn 0 -1 0
vn 0 1 0

# texcoords
vt 0.0957031 0.5
vt 0.0996094 0.5

# verts
v -0.3 -0.15 0.25
v -0.3 -0.15 -0.25
v -0.3 -0.05 0.25
v -0.3 -0.05 -0.25
v -0.3 0.05 0.25
v -0.3 0.05 -0.25
v -0.2 -0.15 -0.25
v -0.2 -0.15 -0.35
v -0.2 -0.05 -0.25
v -0.2 -0.05 -0.35
v -0.2 0.05 0.25
v -0.2 0.05 -0.25
v -0.2 0.05 -0.35
v -0.2 0.15 0.25
v -0.2 0.15 -0.35
v 0 -0.15 0.35
v 0 -0.15 0.25
v 0 -0.05 0.35
v 0 -0.05 0.25
v 0 0.05 0.35
v 0 0.05 0.25
v 0.2 -0.15 -0.15
v 0.2 -0.15 -0.35
v 0.2 -0.05 -0.15
v 0.2 -0.05 -0.35
v 0.2 0.05 0.25
v 0.2 0.05 -0.15
v 0.2 0.05 -0.35
v 0.2 0.15 0.25
v 0.2 0.15 -0.35
v 0.3 -0.15 0.35
v 0.3 -0.15 -0.15
v 0.3 -0.05 0.35
v 0.3 -0.05 -0.15
v 0.3 0.05 0.35
v 0.3 0.05 -0.15
v 0 -0.15 0.35
v 0 -0.05 0.35
v 0 0.05 0.35
v 0.3 -0.15 0.35
v 0.3 -0.05 0.35
v 0.3 0.05 0.35
v -0.3 -0.15 0.25
v -0.3 -0.05 0.25
v -0.3 0.05 0.25
v -0.2 0.05 0.25
v -0.2 0.15 0.25
v 0 -0.15 0.25
v 0 -0.05 0.25
v 0 0.05 0.25
v 0.2 0.05 0.25
v 0.2 0.15 0.25
v 0.2 -0.15 -0.15
v 0.2 -0.05 -0.15
v 0.2 0.05 -0.15
v 0.3 -0.15 -0.15
v 0.3 -0.05 -0.15
v 0.3 0.05 -0.15
v -0.3 -0.15 -0.25
v -0.3 -0.05 -0.25
v -0.3 0.05 -0.25
v -0.2 -0.15 -0.25
v -0.2 -0.05 -0.25
v -0.2 0.05 -0.25
v -0.2 -0.15 -0.35
v -0.2 -0.05 -0.35
v -0.2 0.05 -0.35
v -0.2 0.15 -0.35
v 0.2 -0.15 -0.35
v 0.2 -0.05 -0.35
v 0.2 0.05 -0.35
v 0.2 0.15 -0.35
v 0 -0.15 0.35
v 0.3 -0.15 0.35
v -0.3 -0.15 0.25
v 0 -0.15 0.25
v 0.2 -0.15 -0.15
v 0.3 -0.15 -0.15
v -0.3 -0.15 -0.25
v -0.2 -0.15 -0.25
v -0.2 -0.15 -0.35
v 0.2 -0.15 -0.35
v 0 0.05 0.35
v 0.3 0.05 0.35
v -0.3 0.05 0.25
v -0.2 0.05 0.25
v 0 0.05 0.25
v 0.2 0.05 0.25
v 0.2 0.05 -0.15
v 0.3 0.05 -0.15
v -0.3 0.05 -0.25
v -0.2 0.05 -0.25
v -0.2 0.15 0.25
v 0.2 0.15 0.25
v -0.2 0.15 -0.35
v 0.2 0.15 -0.35

# faces
f 3/1/1 2/1/1 1/1/1
f 4/1/1 2/1/1 3/1/1
f 5/2/1 4/2/1 3/2/1
f 6/2/1 4/2/1 5/2/1
f 9/1/1 8/1/1 7/1/1
f 10/1/1 8/1/1 9/1/1
f 12/2/1 10/2/1 9/2/1
f 13/2/1 10/2/1 12/2/1
f 14/1/1 12/1/1 11/1/1
f 14/1/1 13/1/1 12/1/1
f 15/1/1 13/1/1 14/1/1
f 18/1/1 17/1/1 16/1/1
f 19/1/1 17/1/1 18/1/1
f 20/2/1 19/2/1 18/2/1
f 21/2/1 19/2/1 20/2/1
f 22/1/2 23/1/2 24/1/2
f 24/1/2 23/1/2 25/1/2
f 24/2/2 25/2/2 27/2/2
f 27/2/2 25/2/2 28/2/2
f 26/1/2 27/1/2 29/1/2
f 27/1/2 28/1/2 29/1/2
f 29/1/2 28/1/2 30/1/2
f 31/1/2 32/1/2 33/1/2
f 33/1/2 32/1/2 34/1/2
f 33/2/2 34/2/2 35/2/2
f 35/2/2 34/2/2 36/2/2
f 40/1/3 38/1/3 37/1/3
f 41/2/3 39/2/3 38/2/3
f 41/1/3 38/1/3 40/1/3
f 42/2/3 39/2/3 41/2/3
f 46/2/3 45/2/3 44/2/3
f 48/1/3 44/1/3 43/1/3
f 49/2/3 46/2/3 44/2/3
f 49/1/3 44/1/3 48/1/3
f 50/1/3 47/1/3 46/1/3
f 50/2/3 46/2/3 49/2/3
f 51/1/3 47/1/3 50/1/3
f 52/1/3 47/1/3 51/1/3
f 53/1/4 54/1/4 56/1/4
f 54/2/4 55/2/4 57/2/4
f 56/1/4 54/1/4 57/1/4
f 57/2/4 55/2/4 58/2/4
f 59/1/4 60/1/4 62/1/4
f 60/2/4 61/2/4 63/2/4
f 62/1/4 60/1/4 63/1/4
f 63/2/4 61/2/4 64/2/4
f 65/1/4 66/1/4 69/1/4
f 66/2/4 67/2/4 70/2/4
f 69/1/4 66/1/4 70/1/4
f 67/1/4 68/1/4 71/1/4
f 70/2/4 67/2/4 71/2/4
f 71/1/4 68/1/4 72/1/4
f 76/1/5 74/1/5 73/1/5
f 77/1/5 74/1/5 76/1/5
f 77/1/5 76/1/5 75/1/5
f 78/1/5 74/1/5 77/1/5
f 79/1/5 77/1/5 75/1/5
f 80/1/5 77/1/5 79/1/5
f 81/1/5 77/1/5 80/1/5
f 82/1/5 77/1/5 81/1/5
f 83/2/6 84/2/6 87/2/6
f 87/2/6 84/2/6 88/2/6
f 88/2/6 84/2/6 89/2/6
f 89/2/6 84/2/6 90/2/6
f 85/2/6 86/2/6 91/2/6
f 91/2/6 86/2/6 92/2/6
f 93/1/6 94/1/6 95/1/6
f 95/1/6 94/1/6 96/1/6
