# MagicaVoxel @ Ephtracy

# group
o 

# material
mtllib rocks1.mtl
usemtl palette

# normals
vn -1 0 0
vn 1 0 0
vn 0 0 1
vn 0 0 -1
vn 0 -1 0
vn 0 1 0

# texcoords
vt 0.318359 0.5
vt 0.322266 0.5
vt 0.330078 0.5
vt 0.337891 0.5
vt 0.341797 0.5

# verts
v -0.35 -0.3 0.2
v -0.35 -0.3 0.1
v -0.35 -0.3 0
v -0.35 -0.1 0.2
v -0.35 -0.1 0.1
v -0.35 -0.1 0
v -0.25 -0.3 0.3
v -0.25 -0.3 0.2
v -0.25 -0.3 0
v -0.25 -0.3 -0.2
v -0.25 -0.2 0.3
v -0.25 -0.2 0.2
v -0.25 -0.1 0.1
v -0.25 -0.1 0
v -0.25 0.1 0
v -0.25 0.1 -0.1
v -0.25 0.3 0.1
v -0.25 0.3 -0.1
v -0.25 0.3 -0.2
v -0.15 -0.3 0.4
v -0.15 -0.3 0.3
v -0.15 -0.2 0.3
v -0.15 -0.2 0.2
v -0.15 -0.1 0.2
v -0.15 -0.1 0.1
v -0.15 0 0.3
v -0.15 0 0.1
v -0.15 0.1 0.4
v -0.15 0.1 0.1
v -0.05 -0.3 -0.2
v -0.05 -0.3 -0.4
v -0.05 -0.2 -0.2
v -0.05 -0.2 -0.4
v 0.05 -0.2 -0.2
v 0.05 -0.2 -0.3
v 0.05 -0.1 -0.2
v 0.05 -0.1 -0.3
v 0.05 -0.1 -0.1
v 0.05 -0.1 -0.2
v 0.05 0 -0.1
v 0.05 0.1 0.1
v 0.05 0.1 -0.1
v 0.05 0.3 0.1
v 0.05 0.3 -0.2
v 0.15 -0.3 -0.3
v 0.15 -0.3 -0.4
v 0.15 -0.2 -0.3
v 0.15 -0.2 -0.4
v 0.25 -0.3 0.4
v 0.25 -0.3 0.3
v 0.25 -0.2 0.3
v 0.25 -0.1 0.3
v 0.25 -0.1 -0.1
v 0.25 0 0.3
v 0.25 0 -0.1
v 0.25 0.1 0.4
v 0.25 0.1 0.3
v 0.25 0.1 -0.1
v 0.35 -0.3 0.3
v 0.35 -0.3 -0.3
v 0.35 -0.2 0.3
v 0.35 -0.2 -0.3
v 0.35 -0.1 0.3
v 0.35 -0.1 -0.3
v -0.15 -0.3 0.4
v -0.15 0.1 0.4
v 0.25 -0.3 0.4
v 0.25 0.1 0.4
v -0.25 -0.3 0.3
v -0.25 -0.2 0.3
v -0.15 -0.3 0.3
v -0.15 -0.2 0.3
v 0.25 -0.3 0.3
v 0.25 -0.2 0.3
v 0.25 -0.1 0.3
v 0.35 -0.3 0.3
v 0.35 -0.2 0.3
v 0.35 -0.1 0.3
v -0.35 -0.3 0.2
v -0.35 -0.1 0.2
v -0.25 -0.3 0.2
v -0.25 -0.2 0.2
v -0.15 -0.2 0.2
v -0.15 -0.1 0.2
v -0.25 -0.1 0.1
v -0.25 0.3 0.1
v -0.15 -0.1 0.1
v -0.15 0 0.1
v -0.15 0.1 0.1
v 0.05 0.1 0.1
v 0.05 0.3 0.1
v -0.35 -0.3 0
v -0.35 -0.1 0
v -0.25 -0.3 0
v -0.25 -0.1 0
v 0.05 -0.1 -0.1
v 0.05 0 -0.1
v 0.05 0.1 -0.1
v 0.25 -0.1 -0.1
v 0.25 0 -0.1
v 0.25 0.1 -0.1
v -0.25 -0.3 -0.2
v -0.25 0.3 -0.2
v -0.05 -0.3 -0.2
v -0.05 -0.2 -0.2
v -0.05 0.3 -0.2
v 0.05 -0.2 -0.2
v 0.05 -0.1 -0.2
v 0.05 0.3 -0.2
v 0.05 -0.2 -0.3
v 0.05 -0.1 -0.3
v 0.15 -0.3 -0.3
v 0.15 -0.2 -0.3
v 0.35 -0.3 -0.3
v 0.35 -0.2 -0.3
v 0.35 -0.1 -0.3
v -0.05 -0.3 -0.4
v -0.05 -0.2 -0.4
v 0.15 -0.3 -0.4
v 0.15 -0.2 -0.4
v -0.15 -0.3 0.4
v 0.25 -0.3 0.4
v -0.25 -0.3 0.3
v -0.15 -0.3 0.3
v 0.25 -0.3 0.3
v 0.35 -0.3 0.3
v -0.35 -0.3 0.2
v -0.25 -0.3 0.2
v -0.35 -0.3 0.1
v -0.25 -0.3 0.1
v -0.35 -0.3 0
v -0.25 -0.3 0
v -0.15 -0.3 0
v -0.15 -0.3 -0.1
v -0.05 -0.3 -0.1
v -0.25 -0.3 -0.2
v -0.05 -0.3 -0.2
v 0.15 -0.3 -0.2
v 0.25 -0.3 -0.2
v 0.15 -0.3 -0.3
v 0.35 -0.3 -0.3
v -0.05 -0.3 -0.4
v 0.15 -0.3 -0.4
v -0.25 -0.2 0.3
v -0.15 -0.2 0.3
v -0.25 -0.2 0.2
v -0.15 -0.2 0.2
v -0.05 -0.2 -0.2
v 0.05 -0.2 -0.2
v 0.05 -0.2 -0.3
v 0.15 -0.2 -0.3
v -0.05 -0.2 -0.4
v 0.15 -0.2 -0.4
v 0.25 -0.1 0.3
v 0.35 -0.1 0.3
v -0.35 -0.1 0.2
v -0.15 -0.1 0.2
v -0.35 -0.1 0.1
v -0.25 -0.1 0.1
v -0.15 -0.1 0.1
v -0.35 -0.1 0
v -0.25 -0.1 0
v 0.05 -0.1 -0.1
v 0.25 -0.1 -0.1
v 0.05 -0.1 -0.2
v 0.05 -0.1 -0.3
v 0.35 -0.1 -0.3
v -0.15 0.1 0.4
v 0.25 0.1 0.4
v 0.05 0.1 0.3
v 0.25 0.1 0.3
v -0.15 0.1 0.1
v 0.05 0.1 0.1
v 0.05 0.1 -0.1
v 0.25 0.1 -0.1
v -0.25 0.3 0.1
v 0.05 0.3 0.1
v -0.25 0.3 -0.1
v -0.05 0.3 -0.1
v -0.25 0.3 -0.2
v -0.05 0.3 -0.2
v 0.05 0.3 -0.2

# faces
f 4/2/1 2/2/1 1/2/1
f 5/1/1 3/1/1 2/1/1
f 5/2/1 2/2/1 4/2/1
f 6/1/1 3/1/1 5/1/1
f 11/2/1 8/2/1 7/2/1
f 12/2/1 8/2/1 11/2/1
f 14/1/1 10/1/1 9/1/1
f 15/1/1 10/1/1 14/1/1
f 15/2/1 14/2/1 13/2/1
f 16/1/1 10/1/1 15/1/1
f 17/2/1 15/2/1 13/2/1
f 17/2/1 16/2/1 15/2/1
f 18/1/1 10/1/1 16/1/1
f 18/2/1 16/2/1 17/2/1
f 19/1/1 10/1/1 18/1/1
f 22/1/1 21/1/1 20/1/1
f 24/2/1 23/2/1 22/2/1
f 26/1/1 22/1/1 20/1/1
f 26/2/1 25/2/1 24/2/1
f 26/2/1 24/2/1 22/2/1
f 27/2/1 25/2/1 26/2/1
f 28/1/1 26/1/1 20/1/1
f 28/1/1 27/1/1 26/1/1
f 29/1/1 27/1/1 28/1/1
f 32/1/1 31/1/1 30/1/1
f 33/1/1 31/1/1 32/1/1
f 36/5/1 35/5/1 34/5/1
f 37/5/1 35/5/1 36/5/1
f 38/2/2 39/2/2 40/2/2
f 40/2/2 39/2/2 42/2/2
f 41/2/2 42/2/2 43/2/2
f 42/2/2 39/2/2 44/2/2
f 43/2/2 42/2/2 44/2/2
f 45/1/2 46/1/2 47/1/2
f 47/1/2 46/1/2 48/1/2
f 49/1/2 50/1/2 51/1/2
f 49/1/2 51/1/2 52/1/2
f 49/1/2 52/1/2 54/1/2
f 52/4/2 53/4/2 54/4/2
f 54/4/2 53/4/2 55/4/2
f 49/1/2 54/1/2 56/1/2
f 54/5/2 55/5/2 57/5/2
f 56/1/2 54/1/2 57/1/2
f 57/5/2 55/5/2 58/5/2
f 59/3/2 60/3/2 61/3/2
f 61/3/2 60/3/2 62/3/2
f 61/5/2 62/5/2 63/5/2
f 63/5/2 62/5/2 64/5/2
f 67/1/3 66/1/3 65/1/3
f 68/1/3 66/1/3 67/1/3
f 71/2/3 70/2/3 69/2/3
f 72/2/3 70/2/3 71/2/3
f 76/3/3 74/3/3 73/3/3
f 77/5/3 75/5/3 74/5/3
f 77/3/3 74/3/3 76/3/3
f 78/5/3 75/5/3 77/5/3
f 81/2/3 80/2/3 79/2/3
f 82/2/3 80/2/3 81/2/3
f 83/2/3 80/2/3 82/2/3
f 84/2/3 80/2/3 83/2/3
f 87/2/3 86/2/3 85/2/3
f 88/2/3 86/2/3 87/2/3
f 89/2/3 86/2/3 88/2/3
f 90/2/3 86/2/3 89/2/3
f 91/2/3 86/2/3 90/2/3
f 92/1/4 93/1/4 94/1/4
f 94/1/4 93/1/4 95/1/4
f 96/4/4 97/4/4 99/4/4
f 97/5/4 98/5/4 100/5/4
f 99/4/4 97/4/4 100/4/4
f 100/5/4 98/5/4 101/5/4
f 102/1/4 103/1/4 104/1/4
f 104/1/4 103/1/4 105/1/4
f 105/1/4 103/1/4 106/1/4
f 105/2/4 106/2/4 107/2/4
f 107/2/4 106/2/4 108/2/4
f 108/2/4 106/2/4 109/2/4
f 110/5/4 111/5/4 113/5/4
f 112/3/4 113/3/4 114/3/4
f 113/5/4 111/5/4 115/5/4
f 114/3/4 113/3/4 115/3/4
f 115/5/4 111/5/4 116/5/4
f 117/1/4 118/1/4 119/1/4
f 119/1/4 118/1/4 120/1/4
f 124/1/5 122/1/5 121/1/5
f 125/1/5 122/1/5 124/1/5
f 128/2/5 124/2/5 123/2/5
f 128/2/5 125/2/5 124/2/5
f 129/2/5 128/2/5 127/2/5
f 130/2/5 125/2/5 128/2/5
f 130/2/5 128/2/5 129/2/5
f 131/1/5 130/1/5 129/1/5
f 132/2/5 125/2/5 130/2/5
f 132/1/5 130/1/5 131/1/5
f 133/2/5 125/2/5 132/2/5
f 134/2/5 125/2/5 133/2/5
f 134/1/5 133/1/5 132/1/5
f 135/2/5 125/2/5 134/2/5
f 136/1/5 134/1/5 132/1/5
f 136/1/5 135/1/5 134/1/5
f 137/2/5 125/2/5 135/2/5
f 137/1/5 135/1/5 136/1/5
f 138/2/5 125/2/5 137/2/5
f 139/3/5 126/3/5 125/3/5
f 139/2/5 125/2/5 138/2/5
f 140/1/5 138/1/5 137/1/5
f 140/3/5 139/3/5 138/3/5
f 141/3/5 126/3/5 139/3/5
f 141/3/5 139/3/5 140/3/5
f 142/1/5 140/1/5 137/1/5
f 143/1/5 140/1/5 142/1/5
f 144/2/6 145/2/6 146/2/6
f 146/2/6 145/2/6 147/2/6
f 148/1/6 149/1/6 150/1/6
f 148/1/6 150/1/6 152/1/6
f 150/1/6 151/1/6 152/1/6
f 152/1/6 151/1/6 153/1/6
f 156/2/6 157/2/6 158/2/6
f 158/2/6 157/2/6 159/2/6
f 159/2/6 157/2/6 160/2/6
f 158/1/6 159/1/6 161/1/6
f 161/1/6 159/1/6 162/1/6
f 154/5/6 155/5/6 164/5/6
f 163/5/6 164/5/6 165/5/6
f 165/5/6 164/5/6 166/5/6
f 164/5/6 155/5/6 167/5/6
f 166/5/6 164/5/6 167/5/6
f 168/1/6 169/1/6 170/1/6
f 170/1/6 169/1/6 171/1/6
f 168/1/6 170/1/6 172/1/6
f 170/5/6 171/5/6 173/5/6
f 172/1/6 170/1/6 173/1/6
f 173/5/6 171/5/6 174/5/6
f 174/5/6 171/5/6 175/5/6
f 176/2/6 177/2/6 178/2/6
f 178/2/6 177/2/6 179/2/6
f 178/1/6 179/1/6 180/1/6
f 179/2/6 177/2/6 181/2/6
f 180/1/6 179/1/6 181/1/6
f 181/2/6 177/2/6 182/2/6
