# MagicaVoxel @ Ephtracy

# group
o 

# material
mtllib tree2.mtl
usemtl palette

# normals
vn -1 0 0
vn 1 0 0
vn 0 0 1
vn 0 0 -1
vn 0 -1 0
vn 0 1 0

# texcoords
vt 0.0957031 0.5
vt 0.0996094 0.5
vt 0.517578 0.5
vt 0.529297 0.5

# verts
v -0.3 -0.05 0.4
v -0.3 -0.05 -0.2
v -0.3 0.05 0.4
v -0.3 0.05 -0.2
v -0.3 0.25 0.4
v -0.3 0.25 -0.2
v -0.3 0.55 0.4
v -0.3 0.55 -0.2
v -0.3 0.65 0.4
v -0.3 0.65 -0.2
v -0.2 -0.05 -0.2
v -0.2 -0.05 -0.4
v -0.2 0.05 -0.2
v -0.2 0.05 -0.4
v -0.2 0.25 -0.2
v -0.2 0.25 -0.4
v -0.1 -0.65 0.2
v -0.1 -0.65 0
v -0.1 -0.55 0.2
v -0.1 -0.55 0
v -0.1 -0.35 0.2
v -0.1 -0.35 0
v -0.1 -0.25 0
v -0.1 -0.25 -0.3
v -0.1 -0.15 0.2
v -0.1 -0.15 0
v -0.1 -0.15 -0.2
v -0.1 -0.05 0.2
v -0.1 -0.05 0
v -0.1 -0.05 -0.2
v -0.1 -0.05 -0.3
v 0 -0.25 0
v 0 -0.25 -0.3
v 0 -0.15 0
v 0 -0.15 -0.2
v 0 -0.05 -0.2
v 0 -0.05 -0.3
v 0.1 -0.65 0.2
v 0.1 -0.65 0
v 0.1 -0.55 0.2
v 0.1 -0.55 0
v 0.1 -0.35 0.2
v 0.1 -0.35 0
v 0.1 -0.15 0.2
v 0.1 -0.15 0
v 0.1 -0.05 0.2
v 0.1 -0.05 0
v 0.1 -0.05 -0.2
v 0.1 -0.05 -0.4
v 0.1 0.05 -0.2
v 0.1 0.05 -0.4
v 0.1 0.25 -0.2
v 0.1 0.25 -0.4
v 0.3 -0.05 0.4
v 0.3 -0.05 -0.2
v 0.3 0.05 0.4
v 0.3 0.05 -0.2
v 0.3 0.25 0.4
v 0.3 0.25 -0.2
v 0.3 0.55 0.4
v 0.3 0.55 -0.2
v 0.3 0.65 0.4
v 0.3 0.65 -0.2
v -0.3 -0.05 0.4
v -0.3 0.05 0.4
v -0.3 0.25 0.4
v -0.3 0.55 0.4
v -0.3 0.65 0.4
v 0.3 -0.05 0.4
v 0.3 0.05 0.4
v 0.3 0.25 0.4
v 0.3 0.55 0.4
v 0.3 0.65 0.4
v -0.1 -0.65 0.2
v -0.1 -0.55 0.2
v -0.1 -0.35 0.2
v -0.1 -0.15 0.2
v -0.1 -0.05 0.2
v 0.1 -0.65 0.2
v 0.1 -0.55 0.2
v 0.1 -0.35 0.2
v 0.1 -0.15 0.2
v 0.1 -0.05 0.2
v -0.1 -0.15 -0.2
v -0.1 -0.05 -0.2
v 0 -0.15 -0.2
v 0 -0.05 -0.2
v -0.1 -0.65 0
v -0.1 -0.55 0
v -0.1 -0.35 0
v -0.1 -0.25 0
v -0.1 -0.15 0
v -0.1 -0.05 0
v 0 -0.25 0
v 0 -0.15 0
v 0.1 -0.65 0
v 0.1 -0.55 0
v 0.1 -0.35 0
v 0.1 -0.15 0
v 0.1 -0.05 0
v -0.3 -0.05 -0.2
v -0.3 0.05 -0.2
v -0.3 0.25 -0.2
v -0.3 0.55 -0.2
v -0.3 0.65 -0.2
v -0.2 -0.05 -0.2
v -0.2 0.05 -0.2
v -0.2 0.25 -0.2
v 0.1 -0.05 -0.2
v 0.1 0.05 -0.2
v 0.1 0.25 -0.2
v 0.3 -0.05 -0.2
v 0.3 0.05 -0.2
v 0.3 0.25 -0.2
v 0.3 0.55 -0.2
v 0.3 0.65 -0.2
v -0.1 -0.25 -0.3
v -0.1 -0.05 -0.3
v 0 -0.25 -0.3
v 0 -0.05 -0.3
v -0.2 -0.05 -0.4
v -0.2 0.05 -0.4
v -0.2 0.25 -0.4
v 0.1 -0.05 -0.4
v 0.1 0.05 -0.4
v 0.1 0.25 -0.4
v -0.1 -0.65 0.2
v 0.1 -0.65 0.2
v -0.1 -0.65 0
v 0.1 -0.65 0
v -0.1 -0.25 0
v 0 -0.25 0
v -0.1 -0.25 -0.3
v 0 -0.25 -0.3
v -0.3 -0.05 0.4
v 0.3 -0.05 0.4
v -0.1 -0.05 0.2
v 0.1 -0.05 0.2
v -0.1 -0.05 0
v 0.1 -0.05 0
v -0.3 -0.05 -0.2
v -0.2 -0.05 -0.2
v -0.1 -0.05 -0.2
v 0 -0.05 -0.2
v 0.1 -0.05 -0.2
v 0.3 -0.05 -0.2
v -0.1 -0.05 -0.3
v 0 -0.05 -0.3
v -0.2 -0.05 -0.4
v 0.1 -0.05 -0.4
v -0.1 -0.15 0
v 0 -0.15 0
v -0.1 -0.15 -0.2
v 0 -0.15 -0.2
v -0.2 0.25 -0.2
v 0.1 0.25 -0.2
v -0.2 0.25 -0.4
v 0.1 0.25 -0.4
v -0.3 0.65 0.4
v 0.3 0.65 0.4
v -0.3 0.65 -0.2
v 0.3 0.65 -0.2

# faces
f 3/1/1 2/1/1 1/1/1
f 4/1/1 2/1/1 3/1/1
f 5/2/1 4/2/1 3/2/1
f 6/2/1 4/2/1 5/2/1
f 7/1/1 6/1/1 5/1/1
f 8/1/1 6/1/1 7/1/1
f 9/2/1 8/2/1 7/2/1
f 10/2/1 8/2/1 9/2/1
f 13/1/1 12/1/1 11/1/1
f 14/1/1 12/1/1 13/1/1
f 15/2/1 14/2/1 13/2/1
f 16/2/1 14/2/1 15/2/1
f 19/4/1 18/4/1 17/4/1
f 20/4/1 18/4/1 19/4/1
f 21/3/1 20/3/1 19/3/1
f 22/3/1 20/3/1 21/3/1
f 23/4/1 22/4/1 21/4/1
f 25/4/1 23/4/1 21/4/1
f 25/4/1 24/4/1 23/4/1
f 26/4/1 24/4/1 25/4/1
f 27/4/1 24/4/1 26/4/1
f 28/3/1 26/3/1 25/3/1
f 29/3/1 26/3/1 28/3/1
f 30/4/1 24/4/1 27/4/1
f 31/4/1 24/4/1 30/4/1
f 32/4/2 33/4/2 34/4/2
f 34/4/2 33/4/2 35/4/2
f 35/4/2 33/4/2 36/4/2
f 36/4/2 33/4/2 37/4/2
f 38/4/2 39/4/2 40/4/2
f 40/4/2 39/4/2 41/4/2
f 40/3/2 41/3/2 42/3/2
f 42/3/2 41/3/2 43/3/2
f 42/4/2 43/4/2 44/4/2
f 44/4/2 43/4/2 45/4/2
f 44/3/2 45/3/2 46/3/2
f 46/3/2 45/3/2 47/3/2
f 48/1/2 49/1/2 50/1/2
f 50/1/2 49/1/2 51/1/2
f 50/2/2 51/2/2 52/2/2
f 52/2/2 51/2/2 53/2/2
f 54/1/2 55/1/2 56/1/2
f 56/1/2 55/1/2 57/1/2
f 56/2/2 57/2/2 58/2/2
f 58/2/2 57/2/2 59/2/2
f 58/1/2 59/1/2 60/1/2
f 60/1/2 59/1/2 61/1/2
f 60/2/2 61/2/2 62/2/2
f 62/2/2 61/2/2 63/2/2
f 69/1/3 65/1/3 64/1/3
f 70/2/3 66/2/3 65/2/3
f 70/1/3 65/1/3 69/1/3
f 71/1/3 67/1/3 66/1/3
f 71/2/3 66/2/3 70/2/3
f 72/2/3 68/2/3 67/2/3
f 72/1/3 67/1/3 71/1/3
f 73/2/3 68/2/3 72/2/3
f 79/4/3 75/4/3 74/4/3
f 80/3/3 76/3/3 75/3/3
f 80/4/3 75/4/3 79/4/3
f 81/4/3 77/4/3 76/4/3
f 81/3/3 76/3/3 80/3/3
f 82/3/3 78/3/3 77/3/3
f 82/4/3 77/4/3 81/4/3
f 83/3/3 78/3/3 82/3/3
f 86/4/3 85/4/3 84/4/3
f 87/4/3 85/4/3 86/4/3
f 90/4/4 91/4/4 94/4/4
f 92/3/4 93/3/4 95/3/4
f 88/4/4 89/4/4 96/4/4
f 89/3/4 90/3/4 97/3/4
f 96/4/4 89/4/4 97/4/4
f 94/4/4 95/4/4 98/4/4
f 97/3/4 90/3/4 98/3/4
f 90/4/4 94/4/4 98/4/4
f 95/3/4 93/3/4 99/3/4
f 98/4/4 95/4/4 99/4/4
f 99/3/4 93/3/4 100/3/4
f 101/1/4 102/1/4 106/1/4
f 102/2/4 103/2/4 107/2/4
f 106/1/4 102/1/4 107/1/4
f 103/1/4 104/1/4 108/1/4
f 107/2/4 103/2/4 108/2/4
f 108/1/4 104/1/4 111/1/4
f 109/1/4 110/1/4 112/1/4
f 110/2/4 111/2/4 113/2/4
f 112/1/4 110/1/4 113/1/4
f 111/1/4 104/1/4 114/1/4
f 113/2/4 111/2/4 114/2/4
f 104/2/4 105/2/4 115/2/4
f 114/1/4 104/1/4 115/1/4
f 115/2/4 105/2/4 116/2/4
f 117/4/4 118/4/4 119/4/4
f 119/4/4 118/4/4 120/4/4
f 121/1/4 122/1/4 124/1/4
f 122/2/4 123/2/4 125/2/4
f 124/1/4 122/1/4 125/1/4
f 125/2/4 123/2/4 126/2/4
f 129/4/5 128/4/5 127/4/5
f 130/4/5 128/4/5 129/4/5
f 133/4/5 132/4/5 131/4/5
f 134/4/5 132/4/5 133/4/5
f 137/1/5 136/1/5 135/1/5
f 138/1/5 136/1/5 137/1/5
f 139/1/5 137/1/5 135/1/5
f 140/1/5 136/1/5 138/1/5
f 141/1/5 139/1/5 135/1/5
f 141/1/5 140/1/5 139/1/5
f 142/1/5 140/1/5 141/1/5
f 143/1/5 140/1/5 142/1/5
f 144/1/5 140/1/5 143/1/5
f 145/1/5 136/1/5 140/1/5
f 145/1/5 140/1/5 144/1/5
f 146/1/5 136/1/5 145/1/5
f 147/1/5 143/1/5 142/1/5
f 148/1/5 145/1/5 144/1/5
f 149/1/5 147/1/5 142/1/5
f 149/1/5 148/1/5 147/1/5
f 150/1/5 145/1/5 148/1/5
f 150/1/5 148/1/5 149/1/5
f 151/4/6 152/4/6 153/4/6
f 153/4/6 152/4/6 154/4/6
f 155/2/6 156/2/6 157/2/6
f 157/2/6 156/2/6 158/2/6
f 159/2/6 160/2/6 161/2/6
f 161/2/6 160/2/6 162/2/6
