# MagicaVoxel @ Ephtracy

# group
o 

# material
mtllib tree1.mtl
usemtl palette

# normals
vn -1 0 0
vn 1 0 0
vn 0 0 1
vn 0 0 -1
vn 0 -1 0
vn 0 1 0

# texcoords
vt 0.0957031 0.5
vt 0.0996094 0.5
vt 0.529297 0.5

# verts
v -0.2 -0.15 0.2
v -0.2 -0.15 -0.2
v -0.2 -0.05 0.2
v -0.2 -0.05 -0.2
v -0.2 0.05 0.2
v -0.2 0.05 -0.2
v -0.2 0.25 0.2
v -0.2 0.25 -0.2
v -0.2 0.35 0.2
v -0.2 0.35 -0.2
v -0.1 -0.35 0.1
v -0.1 -0.35 -0.1
v -0.1 -0.15 0.1
v -0.1 -0.15 -0.1
v 0.1 -0.35 0.1
v 0.1 -0.35 -0.1
v 0.1 -0.15 0.1
v 0.1 -0.15 -0.1
v 0.2 -0.15 0.2
v 0.2 -0.15 -0.2
v 0.2 -0.05 0.2
v 0.2 -0.05 -0.2
v 0.2 0.05 0.2
v 0.2 0.05 -0.2
v 0.2 0.25 0.2
v 0.2 0.25 -0.2
v 0.2 0.35 0.2
v 0.2 0.35 -0.2
v -0.2 -0.15 0.2
v -0.2 -0.05 0.2
v -0.2 0.05 0.2
v -0.2 0.25 0.2
v -0.2 0.35 0.2
v 0.2 -0.15 0.2
v 0.2 -0.05 0.2
v 0.2 0.05 0.2
v 0.2 0.25 0.2
v 0.2 0.35 0.2
v -0.1 -0.35 0.1
v -0.1 -0.15 0.1
v 0.1 -0.35 0.1
v 0.1 -0.15 0.1
v -0.1 -0.35 -0.1
v -0.1 -0.15 -0.1
v 0.1 -0.35 -0.1
v 0.1 -0.15 -0.1
v -0.2 -0.15 -0.2
v -0.2 -0.05 -0.2
v -0.2 0.05 -0.2
v -0.2 0.25 -0.2
v -0.2 0.35 -0.2
v 0.2 -0.15 -0.2
v 0.2 -0.05 -0.2
v 0.2 0.05 -0.2
v 0.2 0.25 -0.2
v 0.2 0.35 -0.2
v -0.1 -0.35 0.1
v 0.1 -0.35 0.1
v -0.1 -0.35 -0.1
v 0.1 -0.35 -0.1
v -0.2 -0.15 0.2
v 0.2 -0.15 0.2
v -0.1 -0.15 0.1
v 0.1 -0.15 0.1
v -0.1 -0.15 -0.1
v 0.1 -0.15 -0.1
v -0.2 -0.15 -0.2
v 0.2 -0.15 -0.2
v -0.2 0.35 0.2
v 0.2 0.35 0.2
v -0.2 0.35 -0.2
v 0.2 0.35 -0.2

# faces
f 3/1/1 2/1/1 1/1/1
f 4/1/1 2/1/1 3/1/1
f 5/2/1 4/2/1 3/2/1
f 6/2/1 4/2/1 5/2/1
f 7/1/1 6/1/1 5/1/1
f 8/1/1 6/1/1 7/1/1
f 9/2/1 8/2/1 7/2/1
f 10/2/1 8/2/1 9/2/1
f 13/3/1 12/3/1 11/3/1
f 14/3/1 12/3/1 13/3/1
f 15/3/2 16/3/2 17/3/2
f 17/3/2 16/3/2 18/3/2
f 19/1/2 20/1/2 21/1/2
f 21/1/2 20/1/2 22/1/2
f 21/2/2 22/2/2 23/2/2
f 23/2/2 22/2/2 24/2/2
f 23/1/2 24/1/2 25/1/2
f 25/1/2 24/1/2 26/1/2
f 25/2/2 26/2/2 27/2/2
f 27/2/2 26/2/2 28/2/2
f 34/1/3 30/1/3 29/1/3
f 35/2/3 31/2/3 30/2/3
f 35/1/3 30/1/3 34/1/3
f 36/1/3 32/1/3 31/1/3
f 36/2/3 31/2/3 35/2/3
f 37/2/3 33/2/3 32/2/3
f 37/1/3 32/1/3 36/1/3
f 38/2/3 33/2/3 37/2/3
f 41/3/3 40/3/3 39/3/3
f 42/3/3 40/3/3 41/3/3
f 43/3/4 44/3/4 45/3/4
f 45/3/4 44/3/4 46/3/4
f 47/1/4 48/1/4 52/1/4
f 48/2/4 49/2/4 53/2/4
f 52/1/4 48/1/4 53/1/4
f 49/1/4 50/1/4 54/1/4
f 53/2/4 49/2/4 54/2/4
f 50/2/4 51/2/4 55/2/4
f 54/1/4 50/1/4 55/1/4
f 55/2/4 51/2/4 56/2/4
f 59/3/5 58/3/5 57/3/5
f 60/3/5 58/3/5 59/3/5
f 63/1/5 62/1/5 61/1/5
f 64/1/5 62/1/5 63/1/5
f 65/1/5 63/1/5 61/1/5
f 66/1/5 62/1/5 64/1/5
f 67/1/5 65/1/5 61/1/5
f 67/1/5 66/1/5 65/1/5
f 68/1/5 62/1/5 66/1/5
f 68/1/5 66/1/5 67/1/5
f 69/2/6 70/2/6 71/2/6
f 71/2/6 70/2/6 72/2/6
