# MagicaVoxel @ Ephtracy

# group
o 

# material
mtllib learningSlate.mtl
usemtl palette

# normals
vn -1 0 0
vn 1 0 0
vn 0 0 1
vn 0 0 -1
vn 0 -1 0
vn 0 1 0

# texcoords
vt 0.107422 0.5
vt 0.451172 0.5
vt 0.462891 0.5
vt 0.478516 0.5
vt 0.509766 0.5
vt 0.513672 0.5

# verts
v -0.7 -0.95 0.05
v -0.7 -0.95 -0.05
v -0.7 0.55 0.15
v -0.7 0.55 0.05
v -0.7 0.55 -0.05
v -0.7 0.55 -0.15
v -0.7 0.65 0.15
v -0.7 0.65 0.05
v -0.7 0.65 -0.05
v -0.7 0.65 -0.15
v -0.7 0.75 0.05
v -0.7 0.75 -0.05
v -0.5 0.65 0.15
v -0.5 0.65 0.05
v -0.5 0.65 -0.05
v -0.5 0.65 -0.15
v -0.5 0.75 0.15
v -0.5 0.75 0.05
v -0.5 0.75 -0.05
v -0.5 0.75 -0.15
v -0.3 0.55 0.15
v -0.3 0.55 0.05
v -0.3 0.55 -0.05
v -0.3 0.55 -0.15
v -0.3 0.65 0.15
v -0.3 0.65 0.05
v -0.3 0.65 -0.05
v -0.3 0.65 -0.15
v -0.3 0.75 0.15
v -0.3 0.75 -0.15
v -0.3 0.85 0.15
v -0.3 0.85 -0.15
v -0.2 0.85 0.15
v -0.2 0.85 -0.15
v -0.2 0.95 0.15
v -0.2 0.95 -0.15
v 0.1 0.55 0.15
v 0.1 0.55 0.05
v 0.1 0.55 -0.05
v 0.1 0.55 -0.15
v 0.1 0.65 0.15
v 0.1 0.65 0.05
v 0.1 0.65 -0.05
v 0.1 0.65 -0.15
v 0.1 0.75 0.15
v 0.1 0.75 0.05
v 0.1 0.75 -0.05
v 0.1 0.75 -0.15
v 0.1 0.85 0.15
v 0.1 0.85 0.05
v 0.1 0.85 -0.05
v 0.1 0.85 -0.15
v 0.2 0.65 0.15
v 0.2 0.65 0.05
v 0.2 0.65 -0.05
v 0.2 0.65 -0.15
v 0.2 0.75 0.15
v 0.2 0.75 0.05
v 0.2 0.75 -0.05
v 0.2 0.75 -0.15
v 0.4 0.55 0.15
v 0.4 0.55 0.05
v 0.4 0.55 -0.05
v 0.4 0.55 -0.15
v 0.4 0.65 0.15
v 0.4 0.65 0.05
v 0.4 0.65 -0.05
v 0.4 0.65 -0.15
v -0.4 0.55 0.15
v -0.4 0.55 0.05
v -0.4 0.55 -0.05
v -0.4 0.55 -0.15
v -0.4 0.65 0.15
v -0.4 0.65 0.05
v -0.4 0.65 -0.05
v -0.4 0.65 -0.15
v -0.2 0.65 0.15
v -0.2 0.65 0.05
v -0.2 0.65 -0.05
v -0.2 0.65 -0.15
v -0.2 0.75 0.15
v -0.2 0.75 0.05
v -0.2 0.75 -0.05
v -0.2 0.75 -0.15
v -0.1 0.55 0.15
v -0.1 0.55 0.05
v -0.1 0.55 -0.05
v -0.1 0.55 -0.15
v -0.1 0.65 0.15
v -0.1 0.65 0.05
v -0.1 0.65 -0.05
v -0.1 0.65 -0.15
v -0.1 0.75 0.15
v -0.1 0.75 0.05
v -0.1 0.75 -0.05
v -0.1 0.75 -0.15
v -0.1 0.85 0.15
v -0.1 0.85 0.05
v -0.1 0.85 -0.05
v -0.1 0.85 -0.15
v 0.2 0.85 0.15
v 0.2 0.85 -0.15
v 0.2 0.95 0.15
v 0.2 0.95 -0.15
v 0.3 0.55 0.15
v 0.3 0.55 0.05
v 0.3 0.55 -0.05
v 0.3 0.55 -0.15
v 0.3 0.65 0.15
v 0.3 0.65 0.05
v 0.3 0.65 -0.05
v 0.3 0.65 -0.15
v 0.3 0.75 0.15
v 0.3 0.75 -0.15
v 0.3 0.85 0.15
v 0.3 0.85 -0.15
v 0.5 0.65 0.15
v 0.5 0.65 0.05
v 0.5 0.65 -0.05
v 0.5 0.65 -0.15
v 0.5 0.75 0.15
v 0.5 0.75 0.05
v 0.5 0.75 -0.05
v 0.5 0.75 -0.15
v 0.7 -0.95 0.05
v 0.7 -0.95 -0.05
v 0.7 0.55 0.15
v 0.7 0.55 0.05
v 0.7 0.55 -0.05
v 0.7 0.55 -0.15
v 0.7 0.65 0.15
v 0.7 0.65 0.05
v 0.7 0.65 -0.05
v 0.7 0.65 -0.15
v 0.7 0.75 0.05
v 0.7 0.75 -0.05
v -0.7 0.55 0.15
v -0.7 0.65 0.15
v -0.5 0.65 0.15
v -0.5 0.75 0.15
v -0.4 0.55 0.15
v -0.4 0.65 0.15
v -0.3 0.55 0.15
v -0.3 0.65 0.15
v -0.3 0.75 0.15
v -0.3 0.85 0.15
v -0.2 0.65 0.15
v -0.2 0.75 0.15
v -0.2 0.85 0.15
v -0.2 0.95 0.15
v -0.1 0.55 0.15
v -0.1 0.65 0.15
v -0.1 0.75 0.15
v -0.1 0.85 0.15
v 0.1 0.55 0.15
v 0.1 0.65 0.15
v 0.1 0.75 0.15
v 0.1 0.85 0.15
v 0.2 0.65 0.15
v 0.2 0.75 0.15
v 0.2 0.85 0.15
v 0.2 0.95 0.15
v 0.3 0.55 0.15
v 0.3 0.65 0.15
v 0.3 0.75 0.15
v 0.3 0.85 0.15
v 0.4 0.55 0.15
v 0.4 0.65 0.15
v 0.5 0.65 0.15
v 0.5 0.75 0.15
v 0.7 0.55 0.15
v 0.7 0.65 0.15
v -0.7 -0.95 0.05
v -0.7 0.55 0.05
v -0.7 0.65 0.05
v -0.7 0.75 0.05
v -0.6 -0.85 0.05
v -0.6 0.55 0.05
v -0.5 0.65 0.05
v -0.5 0.75 0.05
v -0.4 -0.65 0.05
v -0.4 -0.55 0.05
v -0.4 -0.45 0.05
v -0.4 -0.35 0.05
v -0.4 -0.25 0.05
v -0.4 -0.15 0.05
v -0.4 -0.0500001 0.05
v -0.4 0.05 0.05
v -0.4 0.15 0.05
v -0.4 0.25 0.05
v -0.4 0.35 0.05
v -0.4 0.45 0.05
v -0.4 0.55 0.05
v -0.4 0.65 0.05
v -0.3 0.55 0.05
v -0.3 0.65 0.05
v -0.2 0.65 0.05
v -0.2 0.75 0.05
v -0.1 -0.45 0.05
v -0.1 -0.35 0.05
v -0.1 0.55 0.05
v -0.1 0.65 0.05
v -0.1 0.75 0.05
v -0.1 0.85 0.05
v 0.1 -0.65 0.05
v 0.1 -0.55 0.05
v 0.1 0.35 0.05
v 0.1 0.45 0.05
v 0.1 0.55 0.05
v 0.1 0.65 0.05
v 0.1 0.75 0.05
v 0.1 0.85 0.05
v 0.2 -0.0500001 0.05
v 0.2 0.05 0.05
v 0.2 0.65 0.05
v 0.2 0.75 0.05
v 0.3 -0.25 0.05
v 0.3 -0.15 0.05
v 0.3 0.55 0.05
v 0.3 0.65 0.05
v 0.4 0.15 0.05
v 0.4 0.25 0.05
v 0.4 0.55 0.05
v 0.4 0.65 0.05
v 0.5 0.65 0.05
v 0.5 0.75 0.05
v 0.6 -0.85 0.05
v 0.6 0.55 0.05
v 0.7 -0.95 0.05
v 0.7 0.55 0.05
v 0.7 0.65 0.05
v 0.7 0.75 0.05
v -0.7 -0.95 -0.05
v -0.7 0.55 -0.05
v -0.7 0.65 -0.05
v -0.7 0.75 -0.05
v -0.6 -0.85 -0.05
v -0.6 0.55 -0.05
v -0.5 0.65 -0.05
v -0.5 0.75 -0.05
v -0.4 -0.65 -0.05
v -0.4 -0.55 -0.05
v -0.4 -0.45 -0.05
v -0.4 -0.35 -0.05
v -0.4 -0.25 -0.05
v -0.4 -0.15 -0.05
v -0.4 -0.0500001 -0.05
v -0.4 0.05 -0.05
v -0.4 0.15 -0.05
v -0.4 0.25 -0.05
v -0.4 0.35 -0.05
v -0.4 0.45 -0.05
v -0.4 0.55 -0.05
v -0.4 0.65 -0.05
v -0.3 0.55 -0.05
v -0.3 0.65 -0.05
v -0.2 0.65 -0.05
v -0.2 0.75 -0.05
v -0.1 -0.45 -0.05
v -0.1 -0.35 -0.05
v -0.1 0.55 -0.05
v -0.1 0.65 -0.05
v -0.1 0.75 -0.05
v -0.1 0.85 -0.05
v 0.1 -0.65 -0.05
v 0.1 -0.55 -0.05
v 0.1 0.35 -0.05
v 0.1 0.45 -0.05
v 0.1 0.55 -0.05
v 0.1 0.65 -0.05
v 0.1 0.75 -0.05
v 0.1 0.85 -0.05
v 0.2 -0.0500001 -0.05
v 0.2 0.05 -0.05
v 0.2 0.65 -0.05
v 0.2 0.75 -0.05
v 0.3 -0.25 -0.05
v 0.3 -0.15 -0.05
v 0.3 0.55 -0.05
v 0.3 0.65 -0.05
v 0.4 0.15 -0.05
v 0.4 0.25 -0.05
v 0.4 0.55 -0.05
v 0.4 0.65 -0.05
v 0.5 0.65 -0.05
v 0.5 0.75 -0.05
v 0.6 -0.85 -0.05
v 0.6 0.55 -0.05
v 0.7 -0.95 -0.05
v 0.7 0.55 -0.05
v 0.7 0.65 -0.05
v 0.7 0.75 -0.05
v -0.7 0.55 -0.15
v -0.7 0.65 -0.15
v -0.5 0.65 -0.15
v -0.5 0.75 -0.15
v -0.4 0.55 -0.15
v -0.4 0.65 -0.15
v -0.3 0.55 -0.15
v -0.3 0.65 -0.15
v -0.3 0.75 -0.15
v -0.3 0.85 -0.15
v -0.2 0.65 -0.15
v -0.2 0.75 -0.15
v -0.2 0.85 -0.15
v -0.2 0.95 -0.15
v -0.1 0.55 -0.15
v -0.1 0.65 -0.15
v -0.1 0.75 -0.15
v -0.1 0.85 -0.15
v 0.1 0.55 -0.15
v 0.1 0.65 -0.15
v 0.1 0.75 -0.15
v 0.1 0.85 -0.15
v 0.2 0.65 -0.15
v 0.2 0.75 -0.15
v 0.2 0.85 -0.15
v 0.2 0.95 -0.15
v 0.3 0.55 -0.15
v 0.3 0.65 -0.15
v 0.3 0.75 -0.15
v 0.3 0.85 -0.15
v 0.4 0.55 -0.15
v 0.4 0.65 -0.15
v 0.5 0.65 -0.15
v 0.5 0.75 -0.15
v 0.7 0.55 -0.15
v 0.7 0.65 -0.15
v -0.7 -0.95 0.05
v 0.7 -0.95 0.05
v -0.7 -0.95 -0.05
v 0.7 -0.95 -0.05
v -0.7 0.55 0.15
v -0.4 0.55 0.15
v -0.3 0.55 0.15
v -0.1 0.55 0.15
v 0.1 0.55 0.15
v 0.3 0.55 0.15
v 0.4 0.55 0.15
v 0.7 0.55 0.15
v -0.7 0.55 0.05
v -0.6 0.55 0.05
v -0.4 0.55 0.05
v -0.3 0.55 0.05
v -0.1 0.55 0.05
v 0.1 0.55 0.05
v 0.3 0.55 0.05
v 0.4 0.55 0.05
v 0.6 0.55 0.05
v 0.7 0.55 0.05
v -0.7 0.55 -0.05
v -0.6 0.55 -0.05
v -0.4 0.55 -0.05
v -0.3 0.55 -0.05
v -0.1 0.55 -0.05
v 0.1 0.55 -0.05
v 0.3 0.55 -0.05
v 0.4 0.55 -0.05
v 0.6 0.55 -0.05
v 0.7 0.55 -0.05
v -0.7 0.55 -0.15
v -0.4 0.55 -0.15
v -0.3 0.55 -0.15
v -0.1 0.55 -0.15
v 0.1 0.55 -0.15
v 0.3 0.55 -0.15
v 0.4 0.55 -0.15
v 0.7 0.55 -0.15
v -0.4 0.65 0.15
v -0.3 0.65 0.15
v 0.3 0.65 0.15
v 0.4 0.65 0.15
v -0.4 0.65 0.05
v -0.3 0.65 0.05
v 0.3 0.65 0.05
v 0.4 0.65 0.05
v -0.4 0.65 -0.05
v -0.3 0.65 -0.05
v 0.3 0.65 -0.05
v 0.4 0.65 -0.05
v -0.4 0.65 -0.15
v -0.3 0.65 -0.15
v 0.3 0.65 -0.15
v 0.4 0.65 -0.15
v -0.2 0.75 0.15
v -0.1 0.75 0.15
v 0.1 0.75 0.15
v 0.2 0.75 0.15
v -0.2 0.75 0.05
v -0.1 0.75 0.05
v 0.1 0.75 0.05
v 0.2 0.75 0.05
v -0.2 0.75 -0.05
v -0.1 0.75 -0.05
v 0.1 0.75 -0.05
v 0.2 0.75 -0.05
v -0.2 0.75 -0.15
v -0.1 0.75 -0.15
v 0.1 0.75 -0.15
v 0.2 0.75 -0.15
v -0.1 0.85 0.15
v 0.1 0.85 0.15
v -0.1 0.85 0.05
v 0.1 0.85 0.05
v -0.1 0.85 -0.05
v 0.1 0.85 -0.05
v -0.1 0.85 -0.15
v 0.1 0.85 -0.15
v -0.7 0.65 0.15
v -0.5 0.65 0.15
v -0.2 0.65 0.15
v -0.1 0.65 0.15
v 0.1 0.65 0.15
v 0.2 0.65 0.15
v 0.5 0.65 0.15
v 0.7 0.65 0.15
v -0.7 0.65 0.05
v -0.5 0.65 0.05
v -0.2 0.65 0.05
v -0.1 0.65 0.05
v 0.1 0.65 0.05
v 0.2 0.65 0.05
v 0.5 0.65 0.05
v 0.7 0.65 0.05
v -0.7 0.65 -0.05
v -0.5 0.65 -0.05
v -0.2 0.65 -0.05
v -0.1 0.65 -0.05
v 0.1 0.65 -0.05
v 0.2 0.65 -0.05
v 0.5 0.65 -0.05
v 0.7 0.65 -0.05
v -0.7 0.65 -0.15
v -0.5 0.65 -0.15
v -0.2 0.65 -0.15
v -0.1 0.65 -0.15
v 0.1 0.65 -0.15
v 0.2 0.65 -0.15
v 0.5 0.65 -0.15
v 0.7 0.65 -0.15
v -0.5 0.75 0.15
v -0.3 0.75 0.15
v 0.3 0.75 0.15
v 0.5 0.75 0.15
v -0.7 0.75 0.05
v -0.5 0.75 0.05
v 0.5 0.75 0.05
v 0.7 0.75 0.05
v -0.7 0.75 -0.05
v -0.5 0.75 -0.05
v 0.5 0.75 -0.05
v 0.7 0.75 -0.05
v -0.5 0.75 -0.15
v -0.3 0.75 -0.15
v 0.3 0.75 -0.15
v 0.5 0.75 -0.15
v -0.3 0.85 0.15
v -0.2 0.85 0.15
v 0.2 0.85 0.15
v 0.3 0.85 0.15
v -0.3 0.85 -0.15
v -0.2 0.85 -0.15
v 0.2 0.85 -0.15
v 0.3 0.85 -0.15
v -0.2 0.95 0.15
v 0.2 0.95 0.15
v -0.2 0.95 -0.15
v 0.2 0.95 -0.15

# faces
f 4/6/1 2/6/1 1/6/1
f 5/6/1 2/6/1 4/6/1
f 7/1/1 4/1/1 3/1/1
f 7/1/1 6/1/1 5/1/1
f 7/1/1 5/1/1 4/1/1
f 8/1/1 6/1/1 7/1/1
f 9/1/1 6/1/1 8/1/1
f 10/1/1 6/1/1 9/1/1
f 11/6/1 9/6/1 8/6/1
f 12/6/1 9/6/1 11/6/1
f 17/1/1 14/1/1 13/1/1
f 18/1/1 14/1/1 17/1/1
f 19/1/1 16/1/1 15/1/1
f 20/1/1 16/1/1 19/1/1
f 25/1/1 22/1/1 21/1/1
f 26/1/1 22/1/1 25/1/1
f 27/1/1 24/1/1 23/1/1
f 28/1/1 24/1/1 27/1/1
f 31/1/1 30/1/1 29/1/1
f 32/1/1 30/1/1 31/1/1
f 35/1/1 34/1/1 33/1/1
f 36/1/1 34/1/1 35/1/1
f 41/1/1 38/1/1 37/1/1
f 42/1/1 38/1/1 41/1/1
f 43/1/1 40/1/1 39/1/1
f 44/1/1 40/1/1 43/1/1
f 49/1/1 46/1/1 45/1/1
f 50/1/1 46/1/1 49/1/1
f 51/1/1 48/1/1 47/1/1
f 52/1/1 48/1/1 51/1/1
f 57/1/1 54/1/1 53/1/1
f 58/1/1 54/1/1 57/1/1
f 59/1/1 56/1/1 55/1/1
f 60/1/1 56/1/1 59/1/1
f 65/1/1 62/1/1 61/1/1
f 66/1/1 62/1/1 65/1/1
f 67/1/1 64/1/1 63/1/1
f 68/1/1 64/1/1 67/1/1
f 69/1/2 70/1/2 73/1/2
f 73/1/2 70/1/2 74/1/2
f 71/1/2 72/1/2 75/1/2
f 75/1/2 72/1/2 76/1/2
f 77/1/2 78/1/2 81/1/2
f 81/1/2 78/1/2 82/1/2
f 79/1/2 80/1/2 83/1/2
f 83/1/2 80/1/2 84/1/2
f 85/1/2 86/1/2 89/1/2
f 89/1/2 86/1/2 90/1/2
f 87/1/2 88/1/2 91/1/2
f 91/1/2 88/1/2 92/1/2
f 93/1/2 94/1/2 97/1/2
f 97/1/2 94/1/2 98/1/2
f 95/1/2 96/1/2 99/1/2
f 99/1/2 96/1/2 100/1/2
f 101/1/2 102/1/2 103/1/2
f 103/1/2 102/1/2 104/1/2
f 105/1/2 106/1/2 109/1/2
f 109/1/2 106/1/2 110/1/2
f 107/1/2 108/1/2 111/1/2
f 111/1/2 108/1/2 112/1/2
f 113/1/2 114/1/2 115/1/2
f 115/1/2 114/1/2 116/1/2
f 117/1/2 118/1/2 121/1/2
f 121/1/2 118/1/2 122/1/2
f 119/1/2 120/1/2 123/1/2
f 123/1/2 120/1/2 124/1/2
f 125/6/2 126/6/2 128/6/2
f 128/6/2 126/6/2 129/6/2
f 127/1/2 128/1/2 131/1/2
f 129/1/2 130/1/2 131/1/2
f 128/1/2 129/1/2 131/1/2
f 131/1/2 130/1/2 132/1/2
f 132/1/2 130/1/2 133/1/2
f 133/1/2 130/1/2 134/1/2
f 132/6/2 133/6/2 135/6/2
f 135/6/2 133/6/2 136/6/2
f 139/1/3 138/1/3 137/1/3
f 141/1/3 139/1/3 137/1/3
f 141/1/3 140/1/3 139/1/3
f 142/1/3 140/1/3 141/1/3
f 144/1/3 140/1/3 142/1/3
f 145/1/3 140/1/3 144/1/3
f 147/1/3 144/1/3 143/1/3
f 147/1/3 146/1/3 145/1/3
f 147/1/3 145/1/3 144/1/3
f 148/1/3 146/1/3 147/1/3
f 149/1/3 146/1/3 148/1/3
f 151/1/3 147/1/3 143/1/3
f 152/1/3 147/1/3 151/1/3
f 153/1/3 150/1/3 149/1/3
f 153/1/3 149/1/3 148/1/3
f 154/1/3 150/1/3 153/1/3
f 158/1/3 150/1/3 154/1/3
f 159/1/3 156/1/3 155/1/3
f 160/1/3 158/1/3 157/1/3
f 161/1/3 150/1/3 158/1/3
f 161/1/3 158/1/3 160/1/3
f 162/1/3 150/1/3 161/1/3
f 163/1/3 159/1/3 155/1/3
f 163/1/3 160/1/3 159/1/3
f 163/1/3 161/1/3 160/1/3
f 164/1/3 161/1/3 163/1/3
f 165/1/3 161/1/3 164/1/3
f 166/1/3 161/1/3 165/1/3
f 168/1/3 165/1/3 164/1/3
f 169/1/3 165/1/3 168/1/3
f 169/1/3 168/1/3 167/1/3
f 170/1/3 165/1/3 169/1/3
f 171/1/3 169/1/3 167/1/3
f 172/1/3 169/1/3 171/1/3
f 177/6/3 174/6/3 173/6/3
f 178/6/3 174/6/3 177/6/3
f 179/6/3 176/6/3 175/6/3
f 180/6/3 176/6/3 179/6/3
f 181/5/3 178/5/3 177/5/3
f 182/5/3 178/5/3 181/5/3
f 183/5/3 178/5/3 182/5/3
f 184/5/3 178/5/3 183/5/3
f 185/5/3 178/5/3 184/5/3
f 186/5/3 178/5/3 185/5/3
f 187/5/3 178/5/3 186/5/3
f 188/5/3 178/5/3 187/5/3
f 189/5/3 178/5/3 188/5/3
f 190/5/3 178/5/3 189/5/3
f 191/5/3 178/5/3 190/5/3
f 192/5/3 178/5/3 191/5/3
f 193/5/3 178/5/3 192/5/3
f 195/5/3 193/5/3 192/5/3
f 195/5/3 194/5/3 193/5/3
f 196/5/3 194/5/3 195/5/3
f 199/5/3 183/5/3 182/5/3
f 199/2/3 184/2/3 183/2/3
f 200/5/3 185/5/3 184/5/3
f 200/2/3 184/2/3 199/2/3
f 201/5/3 195/5/3 192/5/3
f 202/3/3 198/3/3 197/3/3
f 203/3/3 198/3/3 202/3/3
f 205/5/3 181/5/3 177/5/3
f 205/2/3 182/2/3 181/2/3
f 206/5/3 199/5/3 182/5/3
f 206/2/3 182/2/3 205/2/3
f 206/5/3 200/5/3 199/5/3
f 207/5/3 191/5/3 190/5/3
f 207/2/3 192/2/3 191/2/3
f 208/5/3 201/5/3 192/5/3
f 208/2/3 192/2/3 207/2/3
f 209/4/3 203/4/3 202/4/3
f 209/5/3 201/5/3 208/5/3
f 209/4/3 204/4/3 203/4/3
f 209/4/3 202/4/3 201/4/3
f 210/4/3 204/4/3 209/4/3
f 211/4/3 204/4/3 210/4/3
f 212/4/3 204/4/3 211/4/3
f 213/5/3 187/5/3 186/5/3
f 213/2/3 188/2/3 187/2/3
f 214/5/3 189/5/3 188/5/3
f 214/2/3 188/2/3 213/2/3
f 215/3/3 211/3/3 210/3/3
f 216/3/3 211/3/3 215/3/3
f 217/5/3 206/5/3 205/5/3
f 217/5/3 185/5/3 200/5/3
f 217/2/3 186/2/3 185/2/3
f 217/5/3 200/5/3 206/5/3
f 218/5/3 214/5/3 213/5/3
f 218/2/3 186/2/3 217/2/3
f 218/5/3 213/5/3 186/5/3
f 219/5/3 208/5/3 207/5/3
f 219/5/3 209/5/3 208/5/3
f 221/5/3 214/5/3 218/5/3
f 221/5/3 189/5/3 214/5/3
f 221/5/3 218/5/3 217/5/3
f 221/2/3 190/2/3 189/2/3
f 222/5/3 220/5/3 219/5/3
f 222/2/3 190/2/3 221/2/3
f 222/5/3 207/5/3 190/5/3
f 222/5/3 219/5/3 207/5/3
f 223/5/3 220/5/3 222/5/3
f 224/5/3 220/5/3 223/5/3
f 227/5/3 221/5/3 217/5/3
f 227/6/3 177/6/3 173/6/3
f 227/5/3 223/5/3 222/5/3
f 227/5/3 222/5/3 221/5/3
f 227/5/3 217/5/3 205/5/3
f 227/5/3 205/5/3 177/5/3
f 228/5/3 223/5/3 227/5/3
f 229/6/3 227/6/3 173/6/3
f 229/6/3 228/6/3 227/6/3
f 230/6/3 228/6/3 229/6/3
f 231/6/3 226/6/3 225/6/3
f 232/6/3 226/6/3 231/6/3
f 233/6/4 234/6/4 237/6/4
f 237/6/4 234/6/4 238/6/4
f 235/6/4 236/6/4 239/6/4
f 239/6/4 236/6/4 240/6/4
f 237/5/4 238/5/4 241/5/4
f 241/5/4 238/5/4 242/5/4
f 242/5/4 238/5/4 243/5/4
f 243/5/4 238/5/4 244/5/4
f 244/5/4 238/5/4 245/5/4
f 245/5/4 238/5/4 246/5/4
f 246/5/4 238/5/4 247/5/4
f 247/5/4 238/5/4 248/5/4
f 248/5/4 238/5/4 249/5/4
f 249/5/4 238/5/4 250/5/4
f 250/5/4 238/5/4 251/5/4
f 251/5/4 238/5/4 252/5/4
f 252/5/4 238/5/4 253/5/4
f 252/5/4 253/5/4 255/5/4
f 253/5/4 254/5/4 255/5/4
f 255/5/4 254/5/4 256/5/4
f 242/5/4 243/5/4 259/5/4
f 243/2/4 244/2/4 259/2/4
f 244/5/4 245/5/4 260/5/4
f 259/2/4 244/2/4 260/2/4
f 252/5/4 255/5/4 261/5/4
f 257/3/4 258/3/4 262/3/4
f 262/3/4 258/3/4 263/3/4
f 237/5/4 241/5/4 265/5/4
f 241/2/4 242/2/4 265/2/4
f 242/5/4 259/5/4 266/5/4
f 265/2/4 242/2/4 266/2/4
f 259/5/4 260/5/4 266/5/4
f 250/5/4 251/5/4 267/5/4
f 251/2/4 252/2/4 267/2/4
f 252/5/4 261/5/4 268/5/4
f 267/2/4 252/2/4 268/2/4
f 262/4/4 263/4/4 269/4/4
f 268/5/4 261/5/4 269/5/4
f 263/4/4 264/4/4 269/4/4
f 261/4/4 262/4/4 269/4/4
f 269/4/4 264/4/4 270/4/4
f 270/4/4 264/4/4 271/4/4
f 271/4/4 264/4/4 272/4/4
f 246/5/4 247/5/4 273/5/4
f 247/2/4 248/2/4 273/2/4
f 248/5/4 249/5/4 274/5/4
f 273/2/4 248/2/4 274/2/4
f 270/3/4 271/3/4 275/3/4
f 275/3/4 271/3/4 276/3/4
f 265/5/4 266/5/4 277/5/4
f 260/5/4 245/5/4 277/5/4
f 245/2/4 246/2/4 277/2/4
f 266/5/4 260/5/4 277/5/4
f 273/5/4 274/5/4 278/5/4
f 277/2/4 246/2/4 278/2/4
f 246/5/4 273/5/4 278/5/4
f 267/5/4 268/5/4 279/5/4
f 268/5/4 269/5/4 279/5/4
f 278/5/4 274/5/4 281/5/4
f 274/5/4 249/5/4 281/5/4
f 277/5/4 278/5/4 281/5/4
f 249/2/4 250/2/4 281/2/4
f 279/5/4 280/5/4 282/5/4
f 281/2/4 250/2/4 282/2/4
f 250/5/4 267/5/4 282/5/4
f 267/5/4 279/5/4 282/5/4
f 282/5/4 280/5/4 283/5/4
f 283/5/4 280/5/4 284/5/4
f 277/5/4 281/5/4 287/5/4
f 233/6/4 237/6/4 287/6/4
f 282/5/4 283/5/4 287/5/4
f 281/5/4 282/5/4 287/5/4
f 265/5/4 277/5/4 287/5/4
f 237/5/4 265/5/4 287/5/4
f 287/5/4 283/5/4 288/5/4
f 233/6/4 287/6/4 289/6/4
f 287/6/4 288/6/4 289/6/4
f 289/6/4 288/6/4 290/6/4
f 285/6/4 286/6/4 291/6/4
f 291/6/4 286/6/4 292/6/4
f 293/1/4 294/1/4 295/1/4
f 293/1/4 295/1/4 297/1/4
f 295/1/4 296/1/4 297/1/4
f 297/1/4 296/1/4 298/1/4
f 298/1/4 296/1/4 300/1/4
f 300/1/4 296/1/4 301/1/4
f 299/1/4 300/1/4 303/1/4
f 301/1/4 302/1/4 303/1/4
f 300/1/4 301/1/4 303/1/4
f 303/1/4 302/1/4 304/1/4
f 304/1/4 302/1/4 305/1/4
f 299/1/4 303/1/4 307/1/4
f 307/1/4 303/1/4 308/1/4
f 305/1/4 306/1/4 309/1/4
f 304/1/4 305/1/4 309/1/4
f 309/1/4 306/1/4 310/1/4
f 310/1/4 306/1/4 314/1/4
f 311/1/4 312/1/4 315/1/4
f 313/1/4 314/1/4 316/1/4
f 314/1/4 306/1/4 317/1/4
f 316/1/4 314/1/4 317/1/4
f 317/1/4 306/1/4 318/1/4
f 311/1/4 315/1/4 319/1/4
f 315/1/4 316/1/4 319/1/4
f 316/1/4 317/1/4 319/1/4
f 319/1/4 317/1/4 320/1/4
f 320/1/4 317/1/4 321/1/4
f 321/1/4 317/1/4 322/1/4
f 320/1/4 321/1/4 324/1/4
f 324/1/4 321/1/4 325/1/4
f 323/1/4 324/1/4 325/1/4
f 325/1/4 321/1/4 326/1/4
f 323/1/4 325/1/4 327/1/4
f 327/1/4 325/1/4 328/1/4
f 331/6/5 330/6/5 329/6/5
f 332/6/5 330/6/5 331/6/5
f 341/1/5 334/1/5 333/1/5
f 342/1/5 334/1/5 341/1/5
f 343/1/5 334/1/5 342/1/5
f 344/1/5 336/1/5 335/1/5
f 345/1/5 336/1/5 344/1/5
f 346/1/5 338/1/5 337/1/5
f 347/1/5 338/1/5 346/1/5
f 348/1/5 340/1/5 339/1/5
f 349/1/5 340/1/5 348/1/5
f 350/1/5 340/1/5 349/1/5
f 361/1/5 352/1/5 351/1/5
f 361/1/5 353/1/5 352/1/5
f 362/1/5 353/1/5 361/1/5
f 363/1/5 355/1/5 354/1/5
f 364/1/5 355/1/5 363/1/5
f 365/1/5 357/1/5 356/1/5
f 366/1/5 357/1/5 365/1/5
f 367/1/5 360/1/5 359/1/5
f 367/1/5 359/1/5 358/1/5
f 368/1/5 360/1/5 367/1/5
f 373/1/5 370/1/5 369/1/5
f 374/1/5 370/1/5 373/1/5
f 375/1/5 372/1/5 371/1/5
f 376/1/5 372/1/5 375/1/5
f 381/1/5 378/1/5 377/1/5
f 382/1/5 378/1/5 381/1/5
f 383/1/5 380/1/5 379/1/5
f 384/1/5 380/1/5 383/1/5
f 389/1/5 386/1/5 385/1/5
f 390/1/5 386/1/5 389/1/5
f 391/1/5 388/1/5 387/1/5
f 392/1/5 388/1/5 391/1/5
f 397/1/5 394/1/5 393/1/5
f 398/1/5 394/1/5 397/1/5
f 399/1/5 396/1/5 395/1/5
f 400/1/5 396/1/5 399/1/5
f 403/1/5 402/1/5 401/1/5
f 404/1/5 402/1/5 403/1/5
f 407/1/5 406/1/5 405/1/5
f 408/1/5 406/1/5 407/1/5
f 409/1/6 410/1/6 417/1/6
f 417/1/6 410/1/6 418/1/6
f 411/1/6 412/1/6 419/1/6
f 419/1/6 412/1/6 420/1/6
f 413/1/6 414/1/6 421/1/6
f 421/1/6 414/1/6 422/1/6
f 415/1/6 416/1/6 423/1/6
f 423/1/6 416/1/6 424/1/6
f 425/1/6 426/1/6 433/1/6
f 433/1/6 426/1/6 434/1/6
f 427/1/6 428/1/6 435/1/6
f 435/1/6 428/1/6 436/1/6
f 429/1/6 430/1/6 437/1/6
f 437/1/6 430/1/6 438/1/6
f 431/1/6 432/1/6 439/1/6
f 439/1/6 432/1/6 440/1/6
f 441/1/6 442/1/6 446/1/6
f 443/1/6 444/1/6 447/1/6
f 445/6/6 446/6/6 449/6/6
f 446/1/6 442/1/6 450/1/6
f 449/6/6 446/6/6 450/6/6
f 447/6/6 448/6/6 451/6/6
f 443/1/6 447/1/6 451/1/6
f 451/6/6 448/6/6 452/6/6
f 450/1/6 442/1/6 453/1/6
f 453/1/6 442/1/6 454/1/6
f 443/1/6 451/1/6 455/1/6
f 455/1/6 451/1/6 456/1/6
f 457/1/6 458/1/6 461/1/6
f 461/1/6 458/1/6 462/1/6
f 459/1/6 460/1/6 463/1/6
f 463/1/6 460/1/6 464/1/6
f 465/1/6 466/1/6 467/1/6
f 467/1/6 466/1/6 468/1/6
