# MagicaVoxel @ Ephtracy

# group
o 

# material
mtllib door.mtl
usemtl palette

# normals
vn -1 0 0
vn 1 0 0
vn 0 0 1
vn 0 0 -1
vn 0 -1 0
vn 0 1 0

# texcoords
vt 0.447266 0.5
vt 0.451172 0.5

# verts
v -0.8 -1.1 0.1
v -0.8 -1.1 -0.1
v -0.8 0.6 0.1
v -0.8 0.6 -0.1
v -0.6 0.6 0.1
v -0.6 0.6 -0.1
v -0.6 0.9 0.1
v -0.6 0.9 -0.1
v -0.3 0.9 0.1
v -0.3 0.9 -0.1
v -0.3 1.1 0.1
v -0.3 1.1 -0.1
v 0.2 0.6 0
v 0.2 0.6 -0.1
v 0.2 0.7 0
v 0.2 0.7 -0.1
v 0.2 0.8 0.1
v 0.2 0.8 0
v 0.2 1 0.1
v 0.2 1 0
v 0.3 0.4 0
v 0.3 0.4 -0.1
v 0.3 0.6 0
v 0.3 0.6 -0.1
v 0.4 0.3 0
v 0.4 0.3 -0.1
v 0.4 0.4 0
v 0.4 0.4 -0.1
v 0.5 -1.1 0
v 0.5 -1.1 -0.1
v 0.5 0.3 0
v 0.5 0.3 -0.1
v 0.5 0.5 0.1
v 0.5 0.5 0
v 0.5 0.8 0.1
v 0.5 0.8 0
v 0.7 -1.1 0.1
v 0.7 -1.1 0
v 0.7 0.5 0.1
v 0.7 0.5 0
v -0.7 -1.1 0.1
v -0.7 -1.1 0
v -0.7 0.5 0.1
v -0.7 0.5 0
v -0.5 -1.1 0
v -0.5 -1.1 -0.1
v -0.5 0.3 0
v -0.5 0.3 -0.1
v -0.5 0.5 0.1
v -0.5 0.5 0
v -0.5 0.8 0.1
v -0.5 0.8 0
v -0.4 0.3 0
v -0.4 0.3 -0.1
v -0.4 0.4 0
v -0.4 0.4 -0.1
v -0.3 0.4 0
v -0.3 0.4 -0.1
v -0.3 0.6 0
v -0.3 0.6 -0.1
v -0.2 0.6 0
v -0.2 0.6 -0.1
v -0.2 0.7 0
v -0.2 0.7 -0.1
v -0.2 0.8 0.1
v -0.2 0.8 0
v -0.2 1 0.1
v -0.2 1 0
v 0.3 0.9 0.1
v 0.3 0.9 -0.1
v 0.3 1.1 0.1
v 0.3 1.1 -0.1
v 0.6 0.6 0.1
v 0.6 0.6 -0.1
v 0.6 0.9 0.1
v 0.6 0.9 -0.1
v 0.8 -1.1 0.1
v 0.8 -1.1 -0.1
v 0.8 0.6 0.1
v 0.8 0.6 -0.1
v -0.8 -1.1 0.1
v -0.8 0.6 0.1
v -0.7 -1.1 0.1
v -0.7 0.5 0.1
v -0.6 0.6 0.1
v -0.6 0.9 0.1
v -0.5 0.5 0.1
v -0.5 0.8 0.1
v -0.3 0.9 0.1
v -0.3 1.1 0.1
v -0.2 0.8 0.1
v -0.2 1 0.1
v 0.2 0.8 0.1
v 0.2 1 0.1
v 0.3 0.9 0.1
v 0.3 1.1 0.1
v 0.5 0.5 0.1
v 0.5 0.8 0.1
v 0.6 0.6 0.1
v 0.6 0.9 0.1
v 0.7 -1.1 0.1
v 0.7 0.5 0.1
v 0.8 -1.1 0.1
v 0.8 0.6 0.1
v -0.7 -1.1 0
v -0.7 0.5 0
v -0.5 -1.1 0
v -0.5 0.3 0
v -0.5 0.5 0
v -0.5 0.8 0
v -0.4 0.3 0
v -0.4 0.4 0
v -0.3 0.4 0
v -0.3 0.6 0
v -0.2 0.6 0
v -0.2 0.7 0
v -0.2 0.8 0
v -0.2 1 0
v 0.2 0.6 0
v 0.2 0.7 0
v 0.2 0.8 0
v 0.2 1 0
v 0.3 0.4 0
v 0.3 0.6 0
v 0.4 0.3 0
v 0.4 0.4 0
v 0.5 -1.1 0
v 0.5 0.3 0
v 0.5 0.5 0
v 0.5 0.8 0
v 0.7 -1.1 0
v 0.7 0.5 0
v -0.8 -1.1 -0.1
v -0.8 0.6 -0.1
v -0.7 -1.1 -0.1
v -0.7 0.5 -0.1
v -0.6 0.6 -0.1
v -0.6 0.9 -0.1
v -0.5 -1.1 -0.1
v -0.5 0.3 -0.1
v -0.5 0.5 -0.1
v -0.5 0.8 -0.1
v -0.4 0.3 -0.1
v -0.4 0.4 -0.1
v -0.3 0.4 -0.1
v -0.3 0.6 -0.1
v -0.3 0.9 -0.1
v -0.3 1.1 -0.1
v -0.2 0.6 -0.1
v -0.2 0.7 -0.1
v -0.2 0.8 -0.1
v -0.2 1 -0.1
v 0.2 0.6 -0.1
v 0.2 0.7 -0.1
v 0.2 0.8 -0.1
v 0.2 1 -0.1
v 0.3 0.4 -0.1
v 0.3 0.6 -0.1
v 0.3 0.9 -0.1
v 0.3 1.1 -0.1
v 0.4 0.3 -0.1
v 0.4 0.4 -0.1
v 0.5 -1.1 -0.1
v 0.5 0.3 -0.1
v 0.5 0.5 -0.1
v 0.5 0.8 -0.1
v 0.6 0.6 -0.1
v 0.6 0.9 -0.1
v 0.7 -1.1 -0.1
v 0.7 0.5 -0.1
v 0.8 -1.1 -0.1
v 0.8 0.6 -0.1
v -0.8 -1.1 0.1
v -0.7 -1.1 0.1
v 0.7 -1.1 0.1
v 0.8 -1.1 0.1
v -0.7 -1.1 0
v -0.5 -1.1 0
v 0.5 -1.1 0
v 0.7 -1.1 0
v -0.8 -1.1 -0.1
v -0.7 -1.1 -0.1
v -0.5 -1.1 -0.1
v 0.5 -1.1 -0.1
v 0.7 -1.1 -0.1
v 0.8 -1.1 -0.1
v -0.5 0.3 0
v -0.4 0.3 0
v 0.4 0.3 0
v 0.5 0.3 0
v -0.5 0.3 -0.1
v -0.4 0.3 -0.1
v 0.4 0.3 -0.1
v 0.5 0.3 -0.1
v -0.4 0.4 0
v -0.3 0.4 0
v 0.3 0.4 0
v 0.4 0.4 0
v -0.4 0.4 -0.1
v -0.3 0.4 -0.1
v 0.3 0.4 -0.1
v 0.4 0.4 -0.1
v -0.7 0.5 0.1
v -0.5 0.5 0.1
v 0.5 0.5 0.1
v 0.7 0.5 0.1
v -0.7 0.5 0
v -0.5 0.5 0
v 0.5 0.5 0
v 0.7 0.5 0
v -0.3 0.6 0
v -0.2 0.6 0
v 0.2 0.6 0
v 0.3 0.6 0
v -0.3 0.6 -0.1
v -0.2 0.6 -0.1
v 0.2 0.6 -0.1
v 0.3 0.6 -0.1
v -0.2 0.7 0
v 0.2 0.7 0
v -0.2 0.7 -0.1
v 0.2 0.7 -0.1
v -0.5 0.8 0.1
v -0.2 0.8 0.1
v 0.2 0.8 0.1
v 0.5 0.8 0.1
v -0.5 0.8 0
v -0.2 0.8 0
v 0.2 0.8 0
v 0.5 0.8 0
v -0.2 1 0.1
v 0.2 1 0.1
v -0.2 1 0
v 0.2 1 0
v -0.8 0.6 0.1
v -0.6 0.6 0.1
v 0.6 0.6 0.1
v 0.8 0.6 0.1
v -0.8 0.6 -0.1
v -0.6 0.6 -0.1
v 0.6 0.6 -0.1
v 0.8 0.6 -0.1
v -0.6 0.9 0.1
v -0.3 0.9 0.1
v 0.3 0.9 0.1
v 0.6 0.9 0.1
v -0.6 0.9 -0.1
v -0.3 0.9 -0.1
v 0.3 0.9 -0.1
v 0.6 0.9 -0.1
v -0.3 1.1 0.1
v 0.3 1.1 0.1
v -0.3 1.1 -0.1
v 0.3 1.1 -0.1

# faces
f 3/2/1 2/2/1 1/2/1
f 4/2/1 2/2/1 3/2/1
f 7/2/1 6/2/1 5/2/1
f 8/2/1 6/2/1 7/2/1
f 11/2/1 10/2/1 9/2/1
f 12/2/1 10/2/1 11/2/1
f 15/1/1 14/1/1 13/1/1
f 16/1/1 14/1/1 15/1/1
f 19/2/1 18/2/1 17/2/1
f 20/2/1 18/2/1 19/2/1
f 23/1/1 22/1/1 21/1/1
f 24/1/1 22/1/1 23/1/1
f 27/1/1 26/1/1 25/1/1
f 28/1/1 26/1/1 27/1/1
f 31/1/1 30/1/1 29/1/1
f 32/1/1 30/1/1 31/1/1
f 35/2/1 34/2/1 33/2/1
f 36/2/1 34/2/1 35/2/1
f 39/2/1 38/2/1 37/2/1
f 40/2/1 38/2/1 39/2/1
f 41/2/2 42/2/2 43/2/2
f 43/2/2 42/2/2 44/2/2
f 45/1/2 46/1/2 47/1/2
f 47/1/2 46/1/2 48/1/2
f 49/2/2 50/2/2 51/2/2
f 51/2/2 50/2/2 52/2/2
f 53/1/2 54/1/2 55/1/2
f 55/1/2 54/1/2 56/1/2
f 57/1/2 58/1/2 59/1/2
f 59/1/2 58/1/2 60/1/2
f 61/1/2 62/1/2 63/1/2
f 63/1/2 62/1/2 64/1/2
f 65/2/2 66/2/2 67/2/2
f 67/2/2 66/2/2 68/2/2
f 69/2/2 70/2/2 71/2/2
f 71/2/2 70/2/2 72/2/2
f 73/2/2 74/2/2 75/2/2
f 75/2/2 74/2/2 76/2/2
f 77/2/2 78/2/2 79/2/2
f 79/2/2 78/2/2 80/2/2
f 83/2/3 82/2/3 81/2/3
f 84/2/3 82/2/3 83/2/3
f 85/2/3 82/2/3 84/2/3
f 87/2/3 85/2/3 84/2/3
f 87/2/3 86/2/3 85/2/3
f 88/2/3 86/2/3 87/2/3
f 89/2/3 86/2/3 88/2/3
f 91/2/3 89/2/3 88/2/3
f 91/2/3 90/2/3 89/2/3
f 92/2/3 90/2/3 91/2/3
f 94/2/3 90/2/3 92/2/3
f 95/2/3 94/2/3 93/2/3
f 96/2/3 90/2/3 94/2/3
f 96/2/3 94/2/3 95/2/3
f 98/2/3 95/2/3 93/2/3
f 99/2/3 98/2/3 97/2/3
f 100/2/3 95/2/3 98/2/3
f 100/2/3 98/2/3 99/2/3
f 102/2/3 99/2/3 97/2/3
f 103/2/3 102/2/3 101/2/3
f 104/2/3 99/2/3 102/2/3
f 104/2/3 102/2/3 103/2/3
f 107/1/3 106/1/3 105/1/3
f 108/1/3 106/1/3 107/1/3
f 109/1/3 106/1/3 108/1/3
f 111/1/3 110/1/3 109/1/3
f 111/1/3 109/1/3 108/1/3
f 112/1/3 110/1/3 111/1/3
f 113/1/3 110/1/3 112/1/3
f 114/1/3 110/1/3 113/1/3
f 115/1/3 110/1/3 114/1/3
f 116/1/3 110/1/3 115/1/3
f 117/1/3 110/1/3 116/1/3
f 120/1/3 118/1/3 117/1/3
f 120/1/3 117/1/3 116/1/3
f 121/1/3 118/1/3 120/1/3
f 122/1/3 118/1/3 121/1/3
f 124/1/3 120/1/3 119/1/3
f 124/1/3 121/1/3 120/1/3
f 126/1/3 124/1/3 123/1/3
f 128/1/3 126/1/3 125/1/3
f 129/1/3 124/1/3 126/1/3
f 129/1/3 126/1/3 128/1/3
f 130/1/3 121/1/3 124/1/3
f 130/1/3 124/1/3 129/1/3
f 131/1/3 129/1/3 128/1/3
f 131/1/3 128/1/3 127/1/3
f 132/1/3 129/1/3 131/1/3
f 133/2/4 134/2/4 135/2/4
f 135/2/4 134/2/4 136/2/4
f 136/2/4 134/2/4 137/2/4
f 135/1/4 136/1/4 139/1/4
f 139/1/4 136/1/4 140/1/4
f 137/2/4 138/2/4 141/2/4
f 140/1/4 136/1/4 141/1/4
f 136/2/4 137/2/4 141/2/4
f 141/2/4 138/2/4 142/2/4
f 140/1/4 141/1/4 143/1/4
f 141/1/4 142/1/4 143/1/4
f 143/1/4 142/1/4 144/1/4
f 144/1/4 142/1/4 145/1/4
f 145/1/4 142/1/4 146/1/4
f 142/2/4 138/2/4 147/2/4
f 146/1/4 142/1/4 149/1/4
f 149/1/4 142/1/4 150/1/4
f 147/2/4 148/2/4 151/2/4
f 150/1/4 142/1/4 151/1/4
f 142/2/4 147/2/4 151/2/4
f 151/2/4 148/2/4 152/2/4
f 150/1/4 151/1/4 154/1/4
f 151/1/4 152/1/4 154/1/4
f 154/1/4 152/1/4 155/1/4
f 152/2/4 148/2/4 156/2/4
f 155/1/4 152/1/4 156/1/4
f 154/1/4 155/1/4 158/1/4
f 153/1/4 154/1/4 158/1/4
f 155/2/4 156/2/4 159/2/4
f 156/2/4 148/2/4 160/2/4
f 159/2/4 156/2/4 160/2/4
f 157/1/4 158/1/4 162/1/4
f 161/1/4 162/1/4 164/1/4
f 162/1/4 158/1/4 165/1/4
f 164/1/4 162/1/4 165/1/4
f 155/2/4 159/2/4 166/2/4
f 165/1/4 158/1/4 166/1/4
f 158/1/4 155/1/4 166/1/4
f 165/2/4 166/2/4 167/2/4
f 166/2/4 159/2/4 168/2/4
f 167/2/4 166/2/4 168/2/4
f 164/1/4 165/1/4 169/1/4
f 163/1/4 164/1/4 169/1/4
f 165/2/4 167/2/4 170/2/4
f 169/1/4 165/1/4 170/1/4
f 169/2/4 170/2/4 171/2/4
f 170/2/4 167/2/4 172/2/4
f 171/2/4 170/2/4 172/2/4
f 177/2/5 174/2/5 173/2/5
f 180/2/5 176/2/5 175/2/5
f 181/2/5 177/2/5 173/2/5
f 182/1/5 178/1/5 177/1/5
f 182/2/5 177/2/5 181/2/5
f 183/1/5 178/1/5 182/1/5
f 184/1/5 180/1/5 179/1/5
f 185/2/5 176/2/5 180/2/5
f 185/1/5 180/1/5 184/1/5
f 186/2/5 176/2/5 185/2/5
f 191/1/5 188/1/5 187/1/5
f 192/1/5 188/1/5 191/1/5
f 193/1/5 190/1/5 189/1/5
f 194/1/5 190/1/5 193/1/5
f 199/1/5 196/1/5 195/1/5
f 200/1/5 196/1/5 199/1/5
f 201/1/5 198/1/5 197/1/5
f 202/1/5 198/1/5 201/1/5
f 207/2/5 204/2/5 203/2/5
f 208/2/5 204/2/5 207/2/5
f 209/2/5 206/2/5 205/2/5
f 210/2/5 206/2/5 209/2/5
f 215/1/5 212/1/5 211/1/5
f 216/1/5 212/1/5 215/1/5
f 217/1/5 214/1/5 213/1/5
f 218/1/5 214/1/5 217/1/5
f 221/1/5 220/1/5 219/1/5
f 222/1/5 220/1/5 221/1/5
f 227/2/5 224/2/5 223/2/5
f 228/2/5 224/2/5 227/2/5
f 229/2/5 226/2/5 225/2/5
f 230/2/5 226/2/5 229/2/5
f 233/2/5 232/2/5 231/2/5
f 234/2/5 232/2/5 233/2/5
f 235/2/6 236/2/6 239/2/6
f 239/2/6 236/2/6 240/2/6
f 237/2/6 238/2/6 241/2/6
f 241/2/6 238/2/6 242/2/6
f 243/2/6 244/2/6 247/2/6
f 247/2/6 244/2/6 248/2/6
f 245/2/6 246/2/6 249/2/6
f 249/2/6 246/2/6 250/2/6
f 251/2/6 252/2/6 253/2/6
f 253/2/6 252/2/6 254/2/6
